<?xml version="1.0" encoding="utf-8"?>
<svg viewBox="50 50 100 100" width="100cm" height="100cm" xmlns="http://www.w3.org/2000/svg">
  <g id="draw-calligraphic" transform="matrix(4.166667, 0, 0, 4.166667, -1683.320068, -1180.269897)">
    <rect y="295.26477" x="415.99683" height="24" width="24" id="rect15357" style="display:inline;fill:none;fill-opacity:1;stroke:none;stroke-width:1.89999998;stroke-linecap:round;stroke-linejoin:round;stroke-miterlimit:4;stroke-dasharray:none;stroke-dashoffset:0.63;stroke-opacity:1"/>
    <path id="path15363" d="m 434.44922,295.26562 -5.07227,8.75 c 0.40639,2.07723 1.57169,3.10423 3.16211,4.11329 l 7.45703,-12.86329 -5.54687,0 z" style="fill:#a950c0;fill-opacity:1;stroke:none;stroke-width:1.89999998;stroke-linecap:round;stroke-linejoin:round;stroke-miterlimit:4;stroke-dasharray:none;stroke-dashoffset:0.63;stroke-opacity:1"/>
    <path id="path15365" d="m 439.99609,295.26562 -7.44921,12.84766 c 1.66,0.92693 3.39018,0.94976 5.14062,0.70117 l 2.30859,-3.98047 0,-9.56836 z" style="fill:#c181d2;fill-opacity:1;stroke:none;stroke-width:1.89999998;stroke-linecap:round;stroke-linejoin:round;stroke-miterlimit:4;stroke-dasharray:none;stroke-dashoffset:0.63;stroke-opacity:1"/>
    <path d="m 419.05957,296.37301 c 0.0547,-0.008 0.1101,-0.0112 0.1655,-0.0146 0.0774,-0.005 0.15481,-0.009 0.23223,-0.0138 0.0881,-0.005 0.17628,-0.009 0.26443,-0.0132 0.0971,6.8e-4 0.19428,0.002 0.29114,0.009 0.10281,0.006 0.20525,0.0178 0.30771,0.0286 0.11637,0.0115 0.23233,0.0272 0.34828,0.0426 0.12355,0.0157 0.24644,0.0365 0.36929,0.0573 0.12676,0.0188 0.25099,0.0517 0.37613,0.0793 0.12923,0.0306 0.25691,0.0674 0.38334,0.10879 0.13201,0.0449 0.26281,0.0935 0.39222,0.14604 0.12996,0.0548 0.25964,0.11022 0.3869,0.17165 0.12836,0.062 0.2525,0.13297 0.3745,0.2076 0.12304,0.0747 0.2408,0.15825 0.35686,0.24416 0.11637,0.0865 0.22659,0.18152 0.33424,0.27952 0.10661,0.0967 0.20471,0.20269 0.30408,0.30724 0.0994,0.10432 0.19278,0.21462 0.2837,0.32707 0.091,0.11326 0.17605,0.23153 0.25819,0.35195 0.0797,0.11752 0.15316,0.23954 0.22269,0.36394 0.068,0.12289 0.12884,0.24985 0.1871,0.37806 0.0577,0.12601 0.10428,0.25705 0.14769,0.38908 0.0436,0.13071 0.0771,0.2647 0.10729,0.3994 0.0313,0.13637 0.0499,0.27524 0.0633,0.41462 0.0144,0.13703 0.0158,0.27482 0.0148,0.41249 -0.002,0.13365 -0.011,0.26704 -0.0257,0.39978 -0.0147,0.12985 -0.0334,0.25923 -0.0589,0.38726 -0.0246,0.12875 -0.0568,0.25561 -0.0935,0.38109 -0.0379,0.12366 -0.0828,0.24455 -0.13064,0.36432 -0.0502,0.11933 -0.10368,0.23734 -0.16344,0.35178 -0.0592,0.1145 -0.12124,0.2273 -0.18567,0.33862 -0.0657,0.1122 -0.13857,0.21959 -0.21202,0.32629 -0.0756,0.10724 -0.15634,0.2105 -0.24099,0.31003 -0.0877,0.10201 -0.17738,0.20213 -0.27204,0.29701 -0.0951,0.0978 -0.19186,0.19394 -0.29242,0.28558 -0.10391,0.097 -0.20862,0.19307 -0.31691,0.28469 -0.11347,0.0938 -0.22802,0.18627 -0.34111,0.28069 -0.11351,0.0939 -0.22353,0.19252 -0.33282,0.29182 -0.10993,0.0999 -0.2136,0.20684 -0.31712,0.31393 -0.10513,0.10648 -0.20321,0.22013 -0.30252,0.33248 -0.10031,0.11345 -0.198,0.22942 -0.29321,0.34759 -0.0938,0.12048 -0.18758,0.24093 -0.27715,0.36492 -0.0913,0.12436 -0.17809,0.25223 -0.26233,0.38192 -0.0846,0.1307 -0.16322,0.26541 -0.23972,0.40141 -0.0771,0.13756 -0.14852,0.27841 -0.21801,0.42029 -0.07,0.14337 -0.13455,0.28956 -0.19795,0.43625 -0.0618,0.14687 -0.11714,0.29656 -0.16984,0.44722 -0.0512,0.14623 -0.0958,0.2948 -0.13797,0.44412 -0.0429,0.1457 -0.0767,0.29382 -0.10629,0.44302 -0.0281,0.14566 -0.05,0.29241 -0.068,0.43976 -0.0174,0.14365 -0.0266,0.28811 -0.0323,0.43274 -0.007,0.14429 -0.003,0.28874 0.003,0.43295 0.008,0.14635 0.0234,0.29206 0.0409,0.43743 0.0172,0.14441 0.0401,0.28789 0.0668,0.43067 0.0269,0.14267 0.0596,0.28397 0.0946,0.42467 0.0351,0.14055 0.0744,0.27987 0.11559,0.41859 0.0396,0.13667 0.0862,0.27087 0.13453,0.40434 0.0492,0.13262 0.10464,0.26259 0.16192,0.39155 0.0572,0.13153 0.12126,0.25953 0.1868,0.38663 0.0682,0.13177 0.14705,0.25697 0.22528,0.38233 0.0795,0.12697 0.16443,0.25002 0.2532,0.37002 0.0921,0.12265 0.18957,0.24072 0.28765,0.35814 0.10023,0.1166 0.20536,0.22838 0.31311,0.33732 0.10949,0.11034 0.22296,0.21607 0.339,0.31874 0.11658,0.10285 0.23486,0.20341 0.35591,0.30044 0.12033,0.0961 0.24511,0.18576 0.37135,0.27304 0.12951,0.0882 0.2633,0.16898 0.39907,0.24598 0.14161,0.0798 0.28606,0.15382 0.43135,0.22593 0.14354,0.0721 0.29019,0.13684 0.43938,0.19489 0.14266,0.057 0.28891,0.10264 0.43687,0.1416 0.14496,0.0385 0.29165,0.0696 0.43913,0.0954 0.14287,0.0252 0.28681,0.0396 0.43142,0.047 0.14554,0.005 0.29115,-1.7e-4 0.43663,-0.004 0.14715,-0.008 0.29414,-0.02 0.44058,-0.0371 0.14432,-0.0158 0.28824,-0.0362 0.43133,-0.0614 0.14367,-0.0216 0.28506,-0.0558 0.4265,-0.0891 0.1465,-0.0365 0.29297,-0.0729 0.4374,-0.11756 0.14476,-0.0424 0.28817,-0.0894 0.43024,-0.14086 0.14338,-0.0579 0.28898,-0.10933 0.43167,-0.16906 0.14637,-0.0597 0.29281,-0.11928 0.43831,-0.18127 0.15238,-0.0614 0.30413,-0.12457 0.4541,-0.1922 0.15073,-0.0691 0.29944,-0.14299 0.44677,-0.21968 0.0242,-0.0132 0.0484,-0.0264 0.0726,-0.0396 0,0 -2.23722,1.87394 -2.23722,1.87394 l 0,0 c -0.0249,0.0122 -0.0498,0.0243 -0.0747,0.0365 -0.15089,0.0722 -0.302,0.14397 -0.4565,0.2074 -0.15238,0.0631 -0.30481,0.12614 -0.45709,0.18955 -0.14718,0.0599 -0.29404,0.12052 -0.44228,0.17744 -0.14634,0.0541 -0.29174,0.11136 -0.44042,0.15813 -0.14571,0.0459 -0.29206,0.0895 -0.43952,0.12881 -0.14854,0.0371 -0.2972,0.0739 -0.44693,0.10533 -0.14525,0.03 -0.29157,0.0537 -0.43829,0.0743 -0.14647,0.0187 -0.29302,0.0365 -0.44022,0.0476 -0.1507,0.0105 -0.30153,0.0205 -0.45264,0.0198 -0.15126,7.9e-4 -0.30275,-0.002 -0.45328,-0.0191 -0.1504,-0.0178 -0.30016,-0.0415 -0.44841,-0.0737 -0.15195,-0.0339 -0.30351,-0.07 -0.45244,-0.11671 -0.1531,-0.0493 -0.30462,-0.10391 -0.45277,-0.16788 -0.15201,-0.0667 -0.30218,-0.13772 -0.45012,-0.21383 -0.14862,-0.0765 -0.2964,-0.155 -0.44081,-0.24004 -0.14062,-0.0839 -0.2795,-0.17112 -0.41338,-0.2665 -0.12989,-0.093 -0.25822,-0.18854 -0.38195,-0.29047 -0.12305,-0.1016 -0.24394,-0.20608 -0.36306,-0.31274 -0.11919,-0.10849 -0.23616,-0.21963 -0.34904,-0.33533 -0.11185,-0.11587 -0.22176,-0.23393 -0.32559,-0.35782 -0.10112,-0.12247 -0.20193,-0.24531 -0.29661,-0.37337 -0.0926,-0.12663 -0.18195,-0.25589 -0.26496,-0.38972 -0.0825,-0.13215 -0.16483,-0.2646 -0.2378,-0.40291 -0.069,-0.13203 -0.13624,-0.26509 -0.1959,-0.40207 -0.0607,-0.1352 -0.11944,-0.27151 -0.17223,-0.41036 -0.0512,-0.13874 -0.10107,-0.27813 -0.14279,-0.42038 -0.0434,-0.14261 -0.0844,-0.28609 -0.12148,-0.43067 -0.0379,-0.14616 -0.0733,-0.29302 -0.10288,-0.4413 -0.0291,-0.14893 -0.0572,-0.29806 -0.0761,-0.44886 -0.0193,-0.15144 -0.0376,-0.30302 -0.0498,-0.4553 -0.0111,-0.15246 -0.0177,-0.30541 -0.0162,-0.45835 0.004,-0.15149 0.008,-0.30317 0.0228,-0.45397 0.0142,-0.15427 0.032,-0.30813 0.059,-0.46058 0.0258,-0.15718 0.0542,-0.31425 0.0956,-0.46784 0.0406,-0.15484 0.0825,-0.30929 0.13115,-0.46158 0.0509,-0.15602 0.10348,-0.31144 0.16268,-0.46426 0.0584,-0.15308 0.12337,-0.30325 0.19073,-0.45219 0.0673,-0.14678 0.13654,-0.29263 0.21111,-0.43554 0.0741,-0.1415 0.15028,-0.28184 0.2322,-0.41856 0.0814,-0.13536 0.16503,-0.26936 0.25504,-0.39867 0.089,-0.1267 0.17577,-0.25524 0.27261,-0.37559 0.0919,-0.12424 0.1868,-0.24581 0.28648,-0.36329 0.0982,-0.11559 0.19776,-0.22998 0.29766,-0.34397 0.10208,-0.11112 0.20448,-0.2221 0.31121,-0.32833 0.10576,-0.10628 0.21593,-0.20727 0.32678,-0.30764 0.11139,-0.097 0.223,-0.19389 0.33907,-0.28467 0.10854,-0.0877 0.21809,-0.17397 0.32071,-0.26933 0.0985,-0.0914 0.20107,-0.17808 0.29672,-0.27294 0.0926,-0.0934 0.18972,-0.18184 0.2779,-0.28005 0.0854,-0.0933 0.17151,-0.18587 0.25001,-0.28579 0.0779,-0.0978 0.15001,-0.20012 0.22158,-0.30308 0.0688,-0.10369 0.13343,-0.21016 0.19331,-0.31982 0.059,-0.10921 0.12136,-0.21635 0.17295,-0.32983 0.0524,-0.11039 0.10168,-0.22272 0.14146,-0.33883 0.0429,-0.11388 0.0809,-0.22986 0.10791,-0.34914 0.027,-0.12034 0.0554,-0.24026 0.0708,-0.36307 0.0167,-0.12397 0.0338,-0.24783 0.039,-0.3731 0.006,-0.12696 0.009,-0.25434 9.3e-4,-0.38129 -0.009,-0.12699 -0.019,-0.25424 -0.0454,-0.37889 -0.0262,-0.12535 -0.0534,-0.25072 -0.0932,-0.37227 -0.0385,-0.12187 -0.0787,-0.24342 -0.13136,-0.35957 -0.0533,-0.12064 -0.11015,-0.23967 -0.17371,-0.35481 -0.065,-0.11643 -0.13403,-0.23035 -0.20869,-0.34022 -0.0777,-0.11322 -0.15827,-0.22434 -0.24526,-0.32998 -0.0874,-0.10585 -0.17745,-0.20923 -0.27251,-0.3076 -0.094,-0.0989 -0.18922,-0.19676 -0.2916,-0.28628 -0.10251,-0.0894 -0.20756,-0.17574 -0.31839,-0.25369 -0.11153,-0.0783 -0.22476,-0.15406 -0.34296,-0.22097 -0.11731,-0.0663 -0.23642,-0.1291 -0.35935,-0.18325 -0.12452,-0.0548 -0.24966,-0.10835 -0.37678,-0.15628 -0.12603,-0.0461 -0.25259,-0.091 -0.38165,-0.12707 -0.12294,-0.0339 -0.24666,-0.0647 -0.37152,-0.0898 -0.12206,-0.0262 -0.24473,-0.0482 -0.36822,-0.0657 -0.12101,-0.0184 -0.24236,-0.0344 -0.36392,-0.0484 -0.11505,-0.0131 -0.23033,-0.024 -0.34574,-0.0331 -0.0997,-0.007 -0.19953,-0.013 -0.29948,-0.0132 -0.0929,10e-4 -0.18589,10e-4 -0.27849,0.0107 -0.0881,0.005 -0.1761,0.0108 -0.26408,0.0174 -0.0772,0.006 -0.15434,0.012 -0.23136,0.0198 -0.0572,0.006 -0.11406,0.0153 -0.17158,0.0159 0,0 2.32484,-1.79769 2.32484,-1.79769 z" id="path17247" style="fill:#000000;fill-opacity:1;stroke:none;stroke-width:1;stroke-linecap:butt;stroke-linejoin:miter;stroke-miterlimit:4;stroke-dasharray:none;stroke-dashoffset:1;stroke-opacity:1"/>
    <path style="opacity:0.99599998;fill:#93aca7;fill-opacity:1;stroke:none;stroke-width:0.2;stroke-linecap:butt;stroke-linejoin:miter;stroke-miterlimit:4;stroke-dasharray:none;stroke-dashoffset:0;stroke-opacity:1;paint-order:stroke fill markers" d="m 434.88211,309.05535 c -1.37303,1.65441 -0.17626,3.59503 0.57785,5.56496 l -8.76987,3.64022 3.03176,-5.25118 a 1.0985553,0.77780397 29.999999 0 0 1.34061,-0.12435 1.0985553,0.77780397 29.999999 0 0 -0.39252,-1.10835 l 2.23139,-3.8649 1.98078,1.1436 z" id="path7945"/>
    <path style="opacity:0.99599998;fill:#6f918a;fill-opacity:1;stroke:none;stroke-width:0.2;stroke-linecap:butt;stroke-linejoin:miter;stroke-miterlimit:4;stroke-dasharray:none;stroke-dashoffset:0;stroke-opacity:1;paint-order:stroke fill markers" d="m 432.54677,307.70704 -2.2314,3.86489 a 1.0985553,0.77780397 29.999999 0 0 -1.15613,0.21425 1.0985553,0.77780397 29.999999 0 0 0.56261,1.22317 l -3.03176,5.25118 -1.23242,-9.41505 c 2.08306,-0.33188 4.36208,-0.26575 5.10832,-2.28204 l 1.98078,1.1436 z" id="path13122"/>
    <rect style="opacity:0.99599998;fill:#f34235;fill-opacity:1;stroke:none;stroke-width:0.2;stroke-linecap:butt;stroke-linejoin:miter;stroke-miterlimit:4;stroke-dasharray:none;stroke-dashoffset:0;stroke-opacity:1;paint-order:stroke fill markers" id="rect13133" width="6.0667548" height="0.51135844" x="-531.68781" y="49.756958" transform="matrix(-0.8660254,-0.5,-0.5,0.8660254,0,0)" rx="0.2557781" ry="0.2557781"/>
    <path id="path7443" d="m 432.51758,307.75781 -1.95703,3.38867 a 1.4081266,1.4081266 0 0 0 -0.52735,-0.10351 1.4081266,1.4081266 0 0 0 -1.4082,1.4082 1.4081266,1.4081266 0 0 0 1.4082,1.40821 1.4081266,1.4081266 0 0 0 1.40821,-1.40821 1.4081266,1.4081266 0 0 0 -0.52735,-1.09765 l 1.95703,-3.39063 -0.35351,-0.20508 z" style="opacity:1;fill:#40534f;fill-opacity:1;stroke:none;stroke-width:0.2;stroke-linecap:butt;stroke-linejoin:miter;stroke-miterlimit:4;stroke-dasharray:none;stroke-dashoffset:0;stroke-opacity:1;paint-order:stroke fill markers"/>
  </g>
</svg>