<?xml version="1.0" encoding="utf-8"?>
<svg viewBox="50 50 100 100" width="100cm" height="100cm" xmlns="http://www.w3.org/2000/svg">
  <g id="color-picker" transform="matrix(3.876177, 0, 0, 3.874642, -1419.660645, -1420.959595)">
    <rect y="381.05682" x="379.1521" height="24" width="24" id="rect12763" style="fill:none;fill-opacity:1;stroke:none;stroke-width:1;stroke-linecap:butt;stroke-linejoin:miter;stroke-miterlimit:4;stroke-dasharray:none;stroke-dashoffset:1;stroke-opacity:1"/>
    <rect style="fill:#28a9c8;fill-opacity:1;stroke:none;stroke-width:1;stroke-linecap:butt;stroke-linejoin:miter;stroke-miterlimit:4;stroke-dasharray:none;stroke-dashoffset:1;stroke-opacity:1" id="rect12777" width="6.0000105" height="6.0000105" x="380.50433" y="399.05682"/>
    <rect y="393.05682" x="386.50433" height="6.0000105" width="6.0000105" id="rect12775" style="fill:#28a9c8;fill-opacity:1;stroke:none;stroke-width:1;stroke-linecap:butt;stroke-linejoin:miter;stroke-miterlimit:4;stroke-dasharray:none;stroke-dashoffset:1;stroke-opacity:1"/>
    <rect style="fill:#2686af;fill-opacity:1;stroke:none;stroke-width:1;stroke-linecap:butt;stroke-linejoin:miter;stroke-miterlimit:4;stroke-dasharray:none;stroke-dashoffset:1;stroke-opacity:1" id="rect12773" width="6.0000105" height="6.0000105" x="386.50433" y="399.05682"/>
    <rect y="399.05682" x="392.50433" height="6.0000105" width="6.0000105" id="rect12779" style="fill:#28a9c8;fill-opacity:1;stroke:none;stroke-width:1;stroke-linecap:butt;stroke-linejoin:miter;stroke-miterlimit:4;stroke-dasharray:none;stroke-dashoffset:1;stroke-opacity:1"/>
    <rect y="387.05682" x="380.50433" height="6.0000105" width="6.0000105" id="rect12783" style="fill:#b7ebff;fill-opacity:1;stroke:none;stroke-width:1;stroke-linecap:butt;stroke-linejoin:miter;stroke-miterlimit:4;stroke-dasharray:none;stroke-dashoffset:1;stroke-opacity:1"/>
    <g transform="matrix(0.18561595,0.10716542,-0.10716542,0.18561595,376.23804,270.84099)" id="g12752">
      <path d="m 360.35938,387.77344 c -0.92366,0.0353 -1.79045,0.13993 -2.58594,0.26367 -3.53553,0.56569 -6.5057,2.82934 -7.91992,6.08203 -1.55563,3.39411 -1.48438,7.00078 -1.48438,10.67774 0.14142,4.38405 0,8.76828 0,13.15234 -3.60625,0.77781 -4.66757,2.12112 -4.73828,5.58594 0,2.12132 -0.0707,4.17204 0,6.22265 0.0707,2.19203 1.76891,4.17148 3.96094,4.24219 1.04254,0.0695 2.08683,-0.26933 3.26367,-0.48242 6.79655,-0.0708 13.76522,-0.0352 20.62305,-0.0352 -0.14464,-0.0398 -0.13587,-0.12421 0.0137,0.0937 0.84853,0.14142 1.4843,0.35352 2.1914,0.35352 3.18198,0.0707 4.8082,-1.69693 4.87891,-4.87891 l 0,-5.0918 c 0,-4.10121 -0.42298,-5.65656 -4.73633,-6.29296 0,-3.39411 0.0703,-6.71722 0.0703,-10.11133 -0.0707,-4.73762 0.63619,-9.54718 -1.69726,-14.00196 -0.56569,-1.13137 -1.34405,-2.05071 -2.33399,-2.75781 -3.44715,-2.59862 -6.73488,-3.12755 -9.50585,-3.02148 z" id="path12716" style="fill:#dc321f;fill-opacity:1"/>
      <path style="fill:#4d4d4d;fill-opacity:1;stroke:none;stroke-width:1;stroke-linecap:butt;stroke-linejoin:miter;stroke-miterlimit:4;stroke-dasharray:none;stroke-dashoffset:1;stroke-opacity:1" d="m 350.71255,433.48233 c -0.0954,0.95219 -0.009,2.17405 -0.009,2.63876 0,15.98061 3.9e-4,32.10298 -0.0703,48.1543 0,3.67696 0.49512,7.14144 2.4043,10.46484 1.06066,1.76777 1.55426,3.95956 1.97851,5.93946 0.0707,0.35355 0.0719,0.63668 0.14258,0.99023 0.42427,2.82843 2.6872,4.94922 5.51563,4.94922 l 0.28125,0 c 2.82843,0 5.02065,-2.05087 5.51562,-4.80859 l 0.0723,-0.0703 c 0.35356,-2.05061 0.353,-4.3135 1.48437,-5.86914 2.33345,-3.60624 3.18204,-7.42377 3.11133,-11.5957 0.28284,-16.12203 0.2125,-32.17329 0.28321,-48.22461 0,-0.56145 0.0383,-1.81299 0.0566,-2.56845 z m 10.23472,3.64461 c 2.04177,0.009 4.10914,0.0274 6.23046,0.0274 0,0 0.0723,0.49566 0.0723,0.91992 0,16.5463 -0.002,30.292 -0.0723,46.76759 0,3.11127 -0.7764,5.86767 -2.33203,8.55468 -1.20208,2.05061 -1.48626,4.59663 -2.19336,6.85938 -0.0707,0.21213 -0.0699,0.4949 -0.14062,0.70703 -0.0707,0.77782 -0.77727,1.34375 -1.48438,1.34375 -0.77782,-0.0707 -1.41561,-0.56593 -1.48632,-1.34375 -0.14142,-1.13137 -0.28202,-2.26356 -0.49414,-3.32422 -0.35355,-1.48492 -0.91905,-3.03971 -1.76758,-4.3125 -1.62634,-2.47487 -2.4043,-5.09149 -2.4043,-7.91992 l 0,-48.25196 c 2.01526,-0.0353 4.03049,-0.0362 6.07227,-0.0274 z" id="rect12736"/>
      <path style="fill:#ffffff;fill-opacity:1;stroke:none;stroke-width:1;stroke-linecap:butt;stroke-linejoin:miter;stroke-miterlimit:4;stroke-dasharray:none;stroke-dashoffset:1;stroke-opacity:1" d="m 360.94727,437.12695 c -2.04178,-0.009 -4.05701,-0.008 -6.07227,0.0273 l 0,48.25195 c 0,2.82843 0.77796,5.44505 2.4043,7.91992 0.84853,1.27279 1.41403,2.82758 1.76758,4.3125 0.21212,1.06066 0.35272,2.19285 0.49414,3.32422 0.0707,0.77782 0.7085,1.27305 1.48632,1.34375 0.70711,0 1.41368,-0.56593 1.48438,-1.34375 0.0707,-0.21213 0.0699,-0.4949 0.14062,-0.70703 0.7071,-2.26275 0.99128,-4.80877 2.19336,-6.85938 1.55563,-2.68701 2.33203,-5.44341 2.33203,-8.55468 0.0703,-16.47559 0.0723,-30.22128 0.0723,-46.76758 0,-0.42426 -0.0723,-0.91992 -0.0723,-0.91992 -2.12132,0 -4.18869,-0.0183 -6.23046,-0.0273 z" id="path12747"/>
    </g>
    <rect style="fill:#5acffb;fill-opacity:1;stroke:none;stroke-width:1;stroke-linecap:butt;stroke-linejoin:miter;stroke-miterlimit:4;stroke-dasharray:none;stroke-dashoffset:1;stroke-opacity:1" id="rect12781" width="6.0000105" height="6.0000105" x="380.50433" y="393.05682"/>
  </g>
</svg>