<?xml version="1.0" encoding="utf-8"?>
<svg viewBox="50 50 100 100" width="100cm" height="100cm" xmlns="http://www.w3.org/2000/svg">
  <g id="tool-measure" transform="matrix(4.166667, 0, 0, 4.166667, -1521.35144, -1829.330444)">
    <path style="display:inline;fill:none;fill-opacity:1;stroke:none;stroke-width:0.1;stroke-linecap:round;stroke-linejoin:round;stroke-miterlimit:4;stroke-dasharray:none;stroke-dashoffset:0.63;stroke-opacity:1" d="m 377.12435,451.03932 24,0 0,24 -24,0 z" id="path15198"/>
    <path style="fill:#268bd2;fill-opacity:1" id="path15312" d="m 390.13791,451.36806 c -0.27462,-0.11133 -0.55637,-0.17675 -0.83681,-0.20023 l -0.6247,0.0195 c -0.97637,0.1356 -1.85618,0.77138 -2.25348,1.75039 -0.59252,1.4594 -6.3225,21.77578 -5.8421,21.971 0.5606,0.22767 10.53425,-18.36628 11.12677,-19.82569 0.59226,-1.45914 -0.11053,-3.12247 -1.56968,-3.71499 z m -1.08927,3.71288 c -0.5672,0 -1.02702,-0.45982 -1.02702,-1.02702 0,-0.56719 0.45982,-1.02701 1.02702,-1.02701 0.56719,0 1.02701,0.45982 1.02701,1.02701 0,0.5672 -0.45982,1.02702 -1.02701,1.02702 z"/>
    <path style="fill:#1d6aa0;fill-opacity:1" id="path15314" d="m 392.59558,455.19913 c -0.0377,0.24983 -0.10473,0.49676 -0.20208,0.73682 -0.19786,0.48779 -1.31958,2.65289 -2.75261,5.33717 3.17682,5.94605 7.64394,13.78732 8.02515,13.63246 0.41524,-0.16858 -3.53191,-14.63441 -5.07046,-19.70645 z"/>
  </g>
</svg>