<?xml version="1.0" encoding="utf-8"?>
<svg viewBox="50 50 100 100" width="100cm" height="100cm" xmlns="http://www.w3.org/2000/svg">
  <g id="tool-tweak" transform="matrix(4.166667, 0, 0, 4.161749, -1505.795288, -55.734184)">
    <path id="path11477" d="m 386.12738,31.928792 4.75034,0 0,4.750321 -4.75034,0 z" style="fill:#268bd2;fill-opacity:1;stroke:none;stroke-width:0.30000001;stroke-miterlimit:4;stroke-dasharray:none;stroke-opacity:1"/>
    <path id="path11479" d="m 380.00057,38.258223 4.55718,0 0,4.557163 -4.55718,0 z" style="fill:#268bd2;fill-opacity:1;stroke:none;stroke-width:0.30000001;stroke-miterlimit:4;stroke-dasharray:none;stroke-opacity:1"/>
    <path d="m 386.61027,38.644532 c 0,0 3.78458,0 3.78458,0 0,0 0,0 0,0 0,6.45e-4 0,3.784543 0,3.784543 0,0 -3.78458,0 -3.78458,0 0,0 0,0 0,0 0,-6.34e-4 0,-3.784543 0,-3.784543" style="fill:#268bd2;fill-opacity:1;stroke:none;stroke-width:0.30000001;stroke-miterlimit:4;stroke-dasharray:none;stroke-opacity:1" id="path11481"/>
    <path d="m 393.22001,39.030847 c 0,0 3.01191,0 3.01191,0 0,0 0,0 0,0 0,9.04e-4 0,3.011913 0,3.011913 0,0 -3.01191,0 -3.01191,0 0,0 0,0 0,0 0,-9.03e-4 0,-3.011913 0,-3.011913" style="fill:#268bd2;fill-opacity:1;stroke:none;stroke-width:0.30000001;stroke-miterlimit:4;stroke-dasharray:none;stroke-opacity:1" id="path11483"/>
    <path d="m 379.61426,31.639057 c 0,0 5.3298,0 5.3298,0 0,0 0,0 0,1.8e-5 0,0.0063 0,5.329772 0,5.329772 0,0 -5.3298,0 -5.3298,0 0,0 0,0 0,-1.7e-5 0,-0.0063 0,-5.329773 0,-5.329773" style="fill:#268bd2;fill-opacity:1;stroke:none;stroke-width:0.30000001;stroke-miterlimit:4;stroke-dasharray:none;stroke-opacity:1" id="path11485"/>
    <path d="m 392.64054,32.218527 c 0,0 4.17085,0 4.17085,0 0,0 0,0 0,1.4e-5 0,0.005 0,4.170837 0,4.170837 0,0 -4.17085,0 -4.17085,0 0,0 0,0 0,-1.3e-5 0,-0.005 0,-4.170839 0,-4.170839" style="fill:#268bd2;fill-opacity:1;stroke:none;stroke-width:0.30000001;stroke-miterlimit:4;stroke-dasharray:none;stroke-opacity:1" id="path11487"/>
    <path d="m 380.19373,44.684246 c 0,0 4.17086,0 4.17086,0 0,0 0,0 0,1.3e-5 0,0.0063 0,4.170838 0,4.170838 0,0 -4.17086,0 -4.17086,0 0,0 0,-1.2e-5 0,-2.6e-5 0,-0.0063 0,-4.170825 0,-4.170825" style="fill:#268bd2;fill-opacity:1;stroke:none;stroke-width:0.30000001;stroke-miterlimit:4;stroke-dasharray:none;stroke-opacity:1" id="path11489"/>
    <path d="m 373.39086,25.406191 c 0,0 5.32978,0 5.32978,0 0,0 0,0 0,1.6e-5 0,0.0096 0,5.329772 0,5.329772 0,0 -5.32978,0 -5.32978,0 0,0 0,-1.6e-5 0,-3.1e-5 0,-0.0096 0,-5.329757 0,-5.329757" style="fill:#268bd2;fill-opacity:1;stroke:none;stroke-width:0.30000001;stroke-miterlimit:4;stroke-dasharray:none;stroke-opacity:1" id="path11491"/>
    <path d="m 379.61426,25.406191 c 0,0 5.3298,0 5.3298,0 0,0 0,1.6e-5 0,3.2e-5 0,0.01118 0,5.329756 0,5.329756 0,0 -5.3298,0 -5.3298,0 0,0 0,0 0,-3.1e-5 0,-0.01118 0,-5.329757 0,-5.329757" style="fill:#268bd2;fill-opacity:1;stroke:none;stroke-width:0.30000001;stroke-miterlimit:4;stroke-dasharray:none;stroke-opacity:1" id="path11493"/>
    <path d="m 392.06107,25.406191 c 0,0 5.32979,0 5.32979,0 0,0 0,1.6e-5 0,3.2e-5 0,0.01275 0,5.329756 0,5.329756 0,0 -5.32979,0 -5.32979,0 0,0 0,0 0,-3.1e-5 0,-0.01276 0,-5.329757 0,-5.329757" style="fill:#268bd2;fill-opacity:1;stroke:none;stroke-width:0.30000001;stroke-miterlimit:4;stroke-dasharray:none;stroke-opacity:1" id="path11495"/>
    <path d="m 385.83765,25.406191 c 0,0 5.32982,0 5.32982,0 0,0 0,1.6e-5 0,4.8e-5 0,0.01274 0,5.32974 0,5.32974 0,0 -5.32982,0 -5.32982,0 0,0 0,0 0,-3.1e-5 0,-0.01276 0,-5.329757 0,-5.329757" style="fill:#268bd2;fill-opacity:1;stroke:none;stroke-width:0.30000001;stroke-miterlimit:4;stroke-dasharray:none;stroke-opacity:1" id="path11497"/>
    <path d="m 373.39086,31.639043 c 0,0 5.32978,0 5.32978,0 0,0 0,1.4e-5 0,6.4e-5 0,0.01992 0,5.329724 0,5.329724 0,0 -5.32978,0 -5.32978,0 0,0 0,-1.5e-5 0,-4.8e-5 0,-0.01992 0,-5.32974 0,-5.32974" style="fill:#268bd2;fill-opacity:1;stroke:none;stroke-width:0.30000001;stroke-miterlimit:4;stroke-dasharray:none;stroke-opacity:1" id="path11499"/>
    <path id="path11501" style="fill:#268bd2;fill-opacity:1;stroke:none;stroke-width:0.30000001;stroke-miterlimit:4;stroke-dasharray:none;stroke-opacity:1" d="m 393.50974,45.553449 c 0,0 2.43245,0 2.43245,0 0,0 0,0 0,8e-6 0,0.0037 0,2.432437 0,2.432437 0,0 -2.43245,0 -2.43245,0 0,0 0,-7e-6 0,-1.5e-5 0,-0.0037 0,-2.43243 0,-2.43243"/>
    <path id="path11503" style="fill:#268bd2;fill-opacity:1;stroke:none;stroke-width:0.30000001;stroke-miterlimit:4;stroke-dasharray:none;stroke-opacity:1" d="m 373.39086,44.10476 c 0,0 5.32978,0 5.32978,0 0,0 0,1.6e-5 0,1.6e-5 0,0.008 0,5.329774 0,5.329774 0,0 -5.32978,0 -5.32978,0 0,0 0,0 0,-1.7e-5 0,-0.008 0,-5.329772 0,-5.329772"/>
    <path id="path11505" style="fill:#268bd2;fill-opacity:1;stroke:none;stroke-width:0.30000001;stroke-miterlimit:4;stroke-dasharray:none;stroke-opacity:1" d="m 373.39086,37.871909 c 0,0 5.32978,0 5.32978,0 0,0 0,0 0,0 0,8.95e-4 0,5.329789 0,5.329789 0,0 -5.32978,0 -5.32978,0 0,0 0,0 0,0 0,-8.94e-4 0,-5.329789 0,-5.329789"/>
    <path id="path11507" style="fill:#268bd2;fill-opacity:1;stroke:none;stroke-width:0.30000001;stroke-miterlimit:4;stroke-dasharray:none;stroke-opacity:1" d="m 386.80343,45.070557 c 0,0 3.39824,0 3.39824,0 0,0 0,0 0,10e-6 0,0.0051 0,3.398219 0,3.398219 0,0 -3.39824,0 -3.39824,0 0,0 0,-9e-6 0,-2.1e-5 0,-0.0051 0,-3.398208 0,-3.398208"/>
  </g>
</svg>