<?xml version="1.0" encoding="utf-8"?>
<svg viewBox="50 50 100 100" width="100cm" height="100cm" xmlns="http://www.w3.org/2000/svg" xmlns:bx="https://boxy-svg.com">
  <g id="tool-pointer" transform="matrix(4.166667, 0, 0, 4.166667, -1825.000122, 66.46917)">
    <rect y="-3.9525998" x="450" height="24" width="24" id="rect11380" style="fill:none;fill-opacity:1;stroke:none;stroke-width:0.1;stroke-linecap:round;stroke-linejoin:round;stroke-miterlimit:4;stroke-dasharray:none;stroke-dashoffset:0.63;stroke-opacity:1"/>
    <g transform="translate(-18.929322,-28.780296)" id="g11375">
      <path style="fill:#e6e6e6;fill-opacity:1;stroke:none;stroke-width:1.89999998;stroke-linecap:round;stroke-linejoin:round;stroke-miterlimit:4;stroke-dasharray:none;stroke-dashoffset:0.63;stroke-opacity:1" d="m 474.96296,27.915335 0,13.503214 3.26475,-2.510374 c 0.10085,-0.07725 0.22441,-0.119444 0.34994,-0.119442 0.0397,-3.2e-5 0.0788,0.004 0.11735,0.01257 0.16418,0.03431 0.30365,0.140316 0.38347,0.28708 l 3.81795,7.030304 3.01538,-1.634467 -3.82004,-7.032401 c -0.0794,-0.145909 -0.0894,-0.318009 -0.0314,-0.473576 0.059,-0.154496 0.17971,-0.277339 0.33527,-0.335275 l 3.80537,-1.412347 -11.23801,-7.315289 z" id="path11364"/>
      <path d="m 487.77893,34.891778 -13.07412,-8.509023 c -0.17703,-0.113722 -0.40126,-0.123378 -0.58473,-0.0236 -0.18348,0.09973 -0.29933,0.292891 -0.29933,0.502107 l 0,15.716635 c 0,0.217795 0.12339,0.416274 0.31974,0.512825 0.19526,0.09549 0.42915,0.07296 0.60081,-0.06008 l 3.65316,-2.809877 3.77118,6.944758 c 0.10364,0.190171 0.30041,0.298265 0.50318,0.298264 0.0923,-1.2e-5 0.1856,-0.02253 0.27251,-0.06974 l 4.01794,-2.181171 c 0.2779,-0.150162 0.3798,-0.497814 0.2296,-0.775694 l -3.77654,-6.954414 4.2529,-1.578205 c 0.20277,-0.0751 0.34547,-0.257495 0.36907,-0.473139 0.0247,-0.211358 -0.0751,-0.421643 -0.25534,-0.539668 z m -5.38264,1.750942 c -0.15556,0.05794 -0.27788,0.180242 -0.33689,0.334738 -0.0579,0.155566 -0.0461,0.328302 0.0333,0.474212 l 3.81838,7.031665 -3.01372,1.636142 -3.81839,-7.031659 c -0.0798,-0.146764 -0.21991,-0.252146 -0.38409,-0.286458 -0.0386,-0.0086 -0.0783,-0.01181 -0.11805,-0.01178 -0.12553,-3e-6 -0.24784,0.04077 -0.3487,0.118015 l -3.26476,2.510539 0,-13.502208 11.23841,7.314906 -3.80551,1.41191 z" id="path11342" style="fill:#4d4d4d;fill-opacity:1"/>
      <path style="fill:#ffffff;fill-opacity:1;stroke:none;stroke-width:1.89999998;stroke-linecap:round;stroke-linejoin:round;stroke-miterlimit:4;stroke-dasharray:none;stroke-dashoffset:0.63;stroke-opacity:1" d="m 474.96296,27.915335 0,13.503214 3.26475,-2.510374 c 0.10085,-0.07725 0.22441,-0.119444 0.34994,-0.119442 0.0397,-3.2e-5 0.0788,0.004 0.11735,0.01257 0.16418,0.03431 0.30365,0.140316 0.38347,0.28708 l 3.81795,7.030304 1.50873,-0.817234 -9.44219,-17.386121 z" id="path11370"/>
    </g>
  </g>
</svg>