<?xml version="1.0" encoding="utf-8"?>
<svg viewBox="50 50 100 100" width="100cm" height="100cm" xmlns="http://www.w3.org/2000/svg">
  <g id="draw-path" transform="matrix(4.166667, 0, 0, 4.166667, -1932.008911, -1045.865234)">
    <rect style="display:inline;fill:none;fill-opacity:1;stroke:none;stroke-width:1.89999998;stroke-linecap:round;stroke-linejoin:round;stroke-miterlimit:4;stroke-dasharray:none;stroke-dashoffset:0.63;stroke-opacity:1" id="rect15303" width="24" height="24" x="475.68213" y="263.00766"/>
    <rect ry="0.5804742" rx="0.5804742" transform="matrix(0.8660254,0.5,-0.5,0.8660254,0,0)" y="-3.7559402" x="563.62231" height="5.9413242" width="1.1609484" id="rect15324" style="display:inline;fill:#ffffff;fill-opacity:1;stroke:#4d4d4d;stroke-width:0.40000001;stroke-linecap:round;stroke-linejoin:round;stroke-miterlimit:4;stroke-dasharray:none;stroke-dashoffset:1;stroke-opacity:1"/>
    <path id="rect15321" d="m 560.10944,-6.9592843 8.20275,0 0,3.4839599 c -2.70255,1.207029 -5.43293,1.3544495 -8.20275,0 z" style="display:inline;fill:#ea3d15;fill-opacity:1;stroke:none;stroke-width:1.89999998;stroke-linecap:round;stroke-linejoin:round;stroke-miterlimit:4;stroke-dasharray:none;stroke-dashoffset:1;stroke-opacity:1" transform="matrix(0.8660254,0.5,-0.5,0.8660254,0,0)"/>
    <path id="path15311" d="m 494.13672,263.00781 -6.06836,10.4668 c 0.40639,2.07723 1.57169,3.10422 3.16211,4.11328 l 8.45117,-14.58008 -5.54492,0 z" style="display:inline;fill:#2686af;fill-opacity:1;stroke:none;stroke-width:1.89999998;stroke-linecap:round;stroke-linejoin:round;stroke-miterlimit:4;stroke-dasharray:none;stroke-dashoffset:0.63;stroke-opacity:1"/>
    <path id="path15313" d="m 499.68164,263.00781 -8.45117,14.58008 c 1.66001,0.92693 3.38823,0.94781 5.13867,0.69922 l 3.3125,-5.71484 0,-9.56446 z" style="display:inline;fill:#28a9c8;fill-opacity:1;stroke:none;stroke-width:1.89999998;stroke-linecap:round;stroke-linejoin:round;stroke-miterlimit:4;stroke-dasharray:none;stroke-dashoffset:0.63;stroke-opacity:1"/>
    <path id="path15351" d="m 487.09204,284.40585 -7.33994,0 0,-6.71218 c 6.16268,-1.65128 8.24869,-13.32779 -3.57339,-13.32779" style="fill:none;fill-opacity:1;stroke:#333333;stroke-width:1;stroke-linecap:butt;stroke-linejoin:miter;stroke-miterlimit:4;stroke-dasharray:none;stroke-dashoffset:1;stroke-opacity:1"/>
    <rect transform="matrix(0.70710678,-0.70710678,0.70710678,0.70710678,0,0)" style="color:#000000;fill:#2686af;fill-opacity:0.5098038;fill-rule:evenodd;stroke:#2686af;stroke-width:0.78145427;stroke-linecap:round;stroke-linejoin:round;stroke-miterlimit:0;stroke-opacity:1" id="rect15338" width="3.1242807" height="3.1255698" x="136.56851" y="538.7785"/>
    <rect transform="matrix(0.70710678,0.70710678,-0.70710678,0.70710678,0,0)" y="-144.43967" x="534.0329" height="3.1255698" width="3.1242807" id="rect15353" style="color:#000000;fill:#2686af;fill-opacity:0.5098038;fill-rule:evenodd;stroke:#2686af;stroke-width:0.78145427;stroke-linecap:round;stroke-linejoin:round;stroke-miterlimit:0;stroke-opacity:1"/>
    <rect style="color:#000000;fill:#2686af;fill-opacity:0.5098038;fill-rule:evenodd;stroke:#2686af;stroke-width:0.78145427;stroke-linecap:round;stroke-linejoin:round;stroke-miterlimit:0;stroke-opacity:1" id="rect15355" width="3.1242807" height="3.1255698" x="267.22626" y="-485.9567" transform="matrix(0,1,-1,0,0,0)"/>
  </g>
</svg>