<?xml version="1.0" encoding="utf-8"?>
<svg viewBox="50 50 100 100" width="100cm" height="100cm" xmlns="http://www.w3.org/2000/svg">
  <g id="tool-spray" transform="matrix(4.166667, 0, 0, 4.166672, -1706.540649, -2032.671875)">
    <rect y="499.84061" x="421.56976" height="24" width="24" id="rect12739" style="fill:none;fill-opacity:1;stroke:none;stroke-width:1;stroke-linecap:butt;stroke-linejoin:miter;stroke-miterlimit:4;stroke-dasharray:none;stroke-dashoffset:1;stroke-opacity:1"/>
    <path id="path12684" d="m 432.34474,512.88893 -6.32225,10.95117 16.70702,0 2.14648,-3.71679 -0.002,-0.002 c -0.003,1.2e-4 -0.006,0.002 -0.008,0.002 -0.55151,0.88708 -3.76144,0.007 -7.20118,-1.97852 -3.4034,-1.96496 -5.75883,-4.27833 -5.33007,-5.21875 l 0,-0.004 0.006,-0.01 c 0.003,-0.006 0.006,-0.01 0.008,-0.0156 -0.001,-0.003 -0.003,-0.006 -0.004,-0.008 z" style="fill:#ea6789;fill-opacity:1"/>
    <path id="path12690" d="m 443.23536,508.49478 c 1.03409,0.59703 1.39531,1.11614 1.35744,1.21237 -0.0646,0.0803 -0.69412,0.0269 -1.72821,-0.57017 -1.03329,-0.59656 -1.39514,-1.11551 -1.35743,-1.21237 0.0643,-0.0799 0.69492,-0.0264 1.7282,0.57017 z m 1.34938,1.51105 -1.71342,2.96773 c 2.27909,2.01632 3.20404,4.83472 2.11386,6.94578 l -0.001,0.002 c -0.0281,0.0544 -0.056,0.10975 -0.0871,0.16354 l -0.004,-0.002 -0.0147,0.0273 c -0.52584,0.9108 -3.75464,0.0303 -7.21271,-1.96618 -3.4034,-1.96495 -5.75782,-4.2775 -5.32905,-5.21793 l -5.6e-4,-0.005 0.006,-0.009 c 0.005,-0.0106 0.008,-0.0218 0.0141,-0.0319 l 0.0155,-0.0269 -0.005,-0.003 c 0.0261,-0.0443 0.0542,-0.0874 0.0818,-0.13079 l 0.0306,-0.0529 c -0.003,0.005 -0.004,0.01 -0.007,0.0152 1.28662,-1.99172 4.18466,-2.59728 7.0659,-1.63321 l 1.71343,-2.96773 c 0.16313,0.44632 0.97111,1.01672 1.46886,1.3041 0.49774,0.28737 1.39531,0.70167 1.86381,0.62002 z m -3.35875,-0.51521 c -0.1761,-0.10167 -0.54264,0.20362 -0.81911,0.68248 -0.27647,0.47885 -0.35804,0.94972 -0.18194,1.05139 0.17609,0.10167 0.5431,-0.2044 0.81957,-0.68326 0.27647,-0.47885 0.35719,-0.94917 0.18148,-1.05061 z" style="fill:#4d4d4d;fill-opacity:1;stroke:none"/>
    <path id="path12746" d="m 424.80469,500.51758 a 1.3038054,1.3038054 0 0 0 -1.30274,1.30273 1.3038054,1.3038054 0 0 0 1.30274,1.30469 1.3038054,1.3038054 0 0 0 1.30469,-1.30469 1.3038054,1.3038054 0 0 0 -1.30469,-1.30273 z m 4.05664,0 a 1.3038054,1.3038054 0 0 0 -1.30469,1.30273 1.3038054,1.3038054 0 0 0 1.30469,1.30469 1.3038054,1.3038054 0 0 0 1.30469,-1.30469 1.3038054,1.3038054 0 0 0 -1.30469,-1.30273 z m 3.71875,0 a 1.3038054,1.3038054 0 0 0 -1.30469,1.30273 1.3038054,1.3038054 0 0 0 1.30469,1.30469 1.3038054,1.3038054 0 0 0 1.30273,-1.30469 1.3038054,1.3038054 0 0 0 -1.30273,-1.30273 z m -9.32031,3.2832 a 1.3038054,1.3038054 0 0 0 -1.30274,1.30274 1.3038054,1.3038054 0 0 0 1.30274,1.30468 1.3038054,1.3038054 0 0 0 1.30468,-1.30468 1.3038054,1.3038054 0 0 0 -1.30468,-1.30274 z m 3.71875,0 a 1.3038054,1.3038054 0 0 0 -1.30469,1.30274 1.3038054,1.3038054 0 0 0 1.30469,1.30468 1.3038054,1.3038054 0 0 0 1.30273,-1.30468 1.3038054,1.3038054 0 0 0 -1.30273,-1.30274 z m 3.81445,0 a 1.3038054,1.3038054 0 0 0 -1.30469,1.30274 1.3038054,1.3038054 0 0 0 1.30469,1.30468 1.3038054,1.3038054 0 0 0 1.30469,-1.30468 1.3038054,1.3038054 0 0 0 -1.30469,-1.30274 z m 3.62109,0 a 1.3038054,1.3038054 0 0 0 -1.30273,1.30274 1.3038054,1.3038054 0 0 0 1.30273,1.30468 1.3038054,1.3038054 0 0 0 1.30469,-1.30468 1.3038054,1.3038054 0 0 0 -1.30469,-1.30274 z m -9.60937,3.33203 a 1.3038054,1.3038054 0 0 0 -1.30274,1.30274 1.3038054,1.3038054 0 0 0 1.30274,1.30468 1.3038054,1.3038054 0 0 0 1.30469,-1.30468 1.3038054,1.3038054 0 0 0 -1.30469,-1.30274 z m 4.05664,0 a 1.3038054,1.3038054 0 0 0 -1.30469,1.30274 1.3038054,1.3038054 0 0 0 1.30469,1.30468 1.3038054,1.3038054 0 0 0 1.30469,-1.30468 1.3038054,1.3038054 0 0 0 -1.30469,-1.30274 z m 3.71875,0 a 1.3038054,1.3038054 0 0 0 -1.30469,1.30274 1.3038054,1.3038054 0 0 0 1.30469,1.30468 1.3038054,1.3038054 0 0 0 1.30273,-1.30468 1.3038054,1.3038054 0 0 0 -1.30273,-1.30274 z m 3.95898,0 a 1.3038054,1.3038054 0 0 0 -1.30273,1.30274 1.3038054,1.3038054 0 0 0 1.30273,1.30468 1.3038054,1.3038054 0 0 0 1.30469,-1.30468 1.3038054,1.3038054 0 0 0 -1.30469,-1.30274 z" style="fill:#e02053;fill-opacity:1;stroke:none;stroke-width:1;stroke-linecap:butt;stroke-linejoin:miter;stroke-miterlimit:4;stroke-dasharray:none;stroke-dashoffset:1;stroke-opacity:1"/>
  </g>
</svg>