<?xml version="1.0" encoding="utf-8"?>
<svg viewBox="50 50 100 100" width="100cm" height="100cm" xmlns="http://www.w3.org/2000/svg" xmlns:bx="https://boxy-svg.com">
  <g id="zoom" transform="matrix(4.166656, 0, 0, 4.166667, -1928.608276, -296.81778)" >
    <path id="path11486" d="m 485.45117,86.263672 c -4.15681,0 -7.55664,3.399816 -7.55664,7.55664 0,4.156824 3.39983,7.558598 7.55664,7.558598 4.15683,0 7.5586,-3.401774 7.5586,-7.558598 0,-4.156825 -3.40177,-7.55664 -7.5586,-7.55664 z" style="fill:#ffffff;fill-opacity:1;stroke:none;stroke-width:1.10000002;stroke-linecap:round;stroke-linejoin:round;stroke-miterlimit:4;stroke-dasharray:none;stroke-dashoffset:0.63;stroke-opacity:1"/>
    <path style="fill:#268bd2;fill-opacity:1" id="path11466" d="m 498.75381,105.00668 -4.83703,-4.83703 c 1.66273,-2.191785 2.41852,-4.988193 1.96505,-8.011338 -0.68021,-4.610297 -4.45914,-8.238071 -9.06944,-8.8427 -6.87766,-0.831365 -12.69721,4.988189 -11.86585,11.865845 0.60463,4.610296 4.23241,8.389223 8.8427,9.069433 3.02315,0.45347 5.81956,-0.37789 8.01134,-1.96504 l 4.83703,4.83703 c 0.15116,0.15116 0.37789,0.15116 0.52905,0 l 1.58715,-1.58716 c 0.15116,-0.15115 0.15116,-0.37788 0,-0.52904 z m -13.30184,-3.62777 c -4.15681,0 -7.55786,-3.401045 -7.55786,-7.557868 0,-4.156825 3.40105,-7.557864 7.55786,-7.557864 4.15683,0 7.55787,3.401039 7.55787,7.557864 0,4.156823 -3.40104,7.557868 -7.55787,7.557868 z"/>
  </g>
</svg>